<?xml version="1.0" standalone="no"?>
<!DOCTYPE svg PUBLIC "-//W3C//DTD SVG 20010904//EN"
 "http://www.w3.org/TR/2001/REC-SVG-20010904/DTD/svg10.dtd">
<svg version="1.0" xmlns="http://www.w3.org/2000/svg"
 width="256.000000pt" height="256.000000pt" viewBox="0 0 256.000000 256.000000"
 preserveAspectRatio="xMidYMid meet">
<metadata>
Created by potrace 1.11, written by Peter Selinger 2001-2013
</metadata>
<g transform="translate(0.000000,256.000000) scale(0.100000,-0.100000)"
fill="#000000" stroke="none">
<path d="M0 1280 l0 -1280 1280 0 1280 0 0 1280 0 1280 -1280 0 -1280 0 0
-1280z m1604 544 c4 -13 13 -24 21 -24 14 0 20 -22 15 -63 -1 -11 -18 -56 -37
-100 -19 -45 -46 -108 -59 -140 -13 -32 -45 -93 -72 -135 -27 -43 -93 -162
-146 -267 -95 -185 -126 -235 -126 -206 0 8 -6 11 -15 7 -10 -3 -16 2 -19 17
-19 94 -12 133 21 120 11 -4 14 -2 9 5 -4 7 -14 12 -23 12 -32 0 -116 55 -143
95 -60 88 -62 133 -12 240 64 134 182 185 312 136 37 -14 52 -16 55 -8 2 7 9
30 16 52 18 60 108 247 130 271 26 28 65 21 73 -12z"/>
<path d="M1338 1437 c4 -16 1 -19 -11 -14 -22 8 -107 -21 -134 -46 -28 -25
-63 -95 -63 -126 0 -28 77 -109 89 -95 5 5 32 64 61 132 29 67 56 122 61 122
5 0 9 6 9 14 0 8 8 16 18 18 12 3 10 6 -9 9 -22 5 -26 3 -21 -14z"/>
</g>
</svg>
