<?xml version="1.0" standalone="no"?>
<!DOCTYPE svg PUBLIC "-//W3C//DTD SVG 20010904//EN"
 "http://www.w3.org/TR/2001/REC-SVG-20010904/DTD/svg10.dtd">
<svg version="1.0" xmlns="http://www.w3.org/2000/svg"
 width="349.000000pt" height="349.000000pt" viewBox="0 0 349.000000 349.000000"
 preserveAspectRatio="xMidYMid meet">
<metadata>
Created by potrace 1.11, written by Peter Selinger 2001-2013
</metadata>
<g transform="translate(0.000000,349.000000) scale(0.100000,-0.100000)"
fill="#000000" stroke="none">
<path d="M1190 3414 c-6 -18 -16 -34 -22 -34 -6 0 -9 -3 -5 -6 3 -3 -13 -43
-36 -88 -23 -45 -43 -88 -45 -96 -3 -14 -11 -33 -47 -115 -8 -16 -11 -33 -9
-37 3 -4 0 -8 -7 -8 -7 0 -10 -2 -7 -5 3 -3 -3 -34 -14 -68 -11 -34 -21 -75
-24 -92 -6 -37 -11 -63 -17 -92 -5 -21 -18 -98 -23 -138 -1 -11 -3 -20 -4 -20
-1 0 -3 -11 -5 -25 -1 -14 -6 -47 -10 -75 -13 -85 -15 -106 -21 -223 l-5 -113
-50 -75 c-43 -63 -83 -140 -119 -229 -19 -46 -66 -222 -75 -283 -3 -15 -12
-61 -21 -102 -9 -41 -16 -85 -17 -97 -1 -13 -4 -23 -7 -23 -4 0 -6 -14 -5 -30
1 -17 -2 -33 -7 -36 -4 -3 -6 -10 -3 -15 4 -5 3 -15 -2 -21 -8 -13 -9 -23 -12
-74 0 -14 -14 -38 -29 -54 -16 -16 -41 -43 -55 -60 -15 -17 -27 -28 -27 -23 0
9 -20 -18 -20 -28 0 -3 22 -4 50 -3 42 3 48 1 43 -14 -12 -38 -74 -175 -83
-182 -3 -3 -14 -23 -25 -45 -11 -22 -24 -43 -30 -47 -7 -5 -7 -8 0 -8 6 0 6
-3 -1 -8 -6 -4 -27 -32 -46 -62 -19 -30 -51 -72 -71 -92 -20 -21 -33 -38 -29
-38 4 0 -6 -9 -21 -19 -16 -10 -25 -21 -20 -23 17 -9 162 4 184 17 11 6 12 5
1 -6 -6 -7 -12 -23 -12 -36 0 -13 -5 -23 -10 -23 -6 0 -9 -3 -8 -7 1 -5 -3
-17 -9 -28 -10 -20 -9 -79 3 -125 4 -14 8 -32 8 -40 9 -90 74 -180 154 -212
21 -8 427 -21 557 -17 11 0 25 0 30 -1 6 -1 81 -3 167 -6 l157 -4 41 42 c22
23 42 50 46 60 3 10 9 18 13 18 4 0 16 19 26 43 9 23 22 52 28 65 6 12 10 55
10 95 l-1 73 78 -1 c44 0 82 -4 86 -8 4 -3 14 -2 24 3 9 5 25 7 36 5 10 -2 24
-4 29 -4 6 -1 4 -5 -4 -10 -18 -12 -16 -79 3 -126 8 -19 33 -61 55 -94 45 -66
50 -68 176 -76 44 -3 116 -9 160 -13 44 -4 186 -8 316 -7 265 1 264 0 317 77
57 83 74 128 79 209 3 44 1 90 -5 108 -12 35 -19 33 88 35 33 0 60 -1 60 -4 0
-3 12 -5 28 -6 15 0 49 -3 75 -7 45 -7 47 -6 38 11 -5 10 -8 27 -7 38 2 10 0
21 -4 24 -3 3 -17 31 -29 62 -13 32 -28 58 -34 58 -6 0 -8 3 -4 6 5 6 -35 69
-54 84 -3 3 -18 24 -33 48 -15 24 -33 45 -41 49 -8 3 -12 9 -9 14 3 5 0 9 -7
9 -7 0 -10 3 -7 6 4 3 -6 18 -21 32 -40 39 -84 109 -88 140 -8 69 -10 142 -3
142 7 0 33 72 45 120 0 3 5 16 9 29 5 13 9 38 10 55 2 18 5 36 7 42 5 10 2
134 -4 176 -4 28 -4 28 42 23 25 -3 62 -7 81 -10 71 -11 153 -6 182 10 14 8 0
17 -68 45 -46 19 -84 38 -84 43 0 4 -6 7 -13 7 -29 0 -167 151 -167 183 0 10
-3 17 -7 17 -5 0 -8 13 -9 30 -1 28 -53 90 -75 90 -5 0 -9 9 -9 20 0 11 -4 20
-9 20 -6 0 -20 18 -32 40 -13 22 -26 40 -30 40 -4 0 -10 8 -13 18 -8 24 -122
143 -130 135 -3 -3 -6 -1 -6 5 0 16 39 35 77 38 46 3 68 27 52 56 -7 12 -21
30 -33 40 -18 15 -19 19 -6 28 8 6 25 9 36 7 26 -4 43 20 35 50 -3 12 -21 38
-38 58 -39 43 -33 66 23 92 42 20 43 29 4 38 -16 4 -31 11 -31 16 -1 5 -2 13
-3 19 0 5 -8 17 -16 27 -17 19 -17 35 -3 118 5 28 7 61 6 75 -4 44 -11 133
-18 221 -3 47 -8 94 -10 105 -2 10 -4 27 -4 37 -1 9 -8 17 -17 17 -8 0 -13 -4
-10 -9 4 -5 3 -11 -1 -13 -5 -1 -19 -23 -32 -48 -14 -25 -27 -47 -30 -50 -11
-9 -31 -44 -42 -72 -6 -16 -15 -25 -20 -22 -5 3 -9 0 -9 -6 0 -6 -6 -17 -12
-24 -7 -7 -33 -37 -58 -65 -25 -29 -56 -65 -70 -79 -21 -23 -63 -73 -130 -155
-8 -10 -22 -27 -30 -37 -8 -10 -24 -31 -35 -46 -11 -16 -27 -35 -36 -44 -15
-16 -24 -34 -28 -55 -2 -5 -9 -14 -17 -18 -8 -4 -14 -15 -14 -22 0 -8 -5 -15
-11 -15 -5 0 -7 -4 -4 -10 7 -11 4 -12 -37 -14 -16 -1 -28 1 -28 4 0 6 -2 7
-135 16 -49 3 -95 11 -102 16 -8 7 -23 5 -45 -6 -17 -9 -58 -19 -90 -22 l-58
-6 -1 29 c-1 15 -2 33 -4 38 -1 6 -3 23 -3 38 -2 20 -8 31 -22 34 -19 5 -33
38 -44 108 -2 17 -5 30 -6 30 -1 0 -3 16 -5 36 -6 58 -9 63 -40 81 -16 9 -27
17 -23 18 4 0 -1 24 -12 54 -10 30 -16 57 -13 59 3 3 1 12 -3 19 -5 7 -9 15
-10 18 -2 12 -25 67 -36 89 -13 24 -48 38 -48 19 0 -22 -29 15 -36 45 -3 18
-16 52 -27 76 -11 24 -20 49 -20 57 0 30 -26 22 -37 -12z"/>
</g>
</svg>
